<svg width="1576" height="1668" viewBox="0 0 1576 1668" fill="none" xmlns="http://www.w3.org/2000/svg">
<rect width="1576" height="1668" fill="#0A0A0A"/>
<path d="M760.165 1498.5C760.165 1663.36 806.225 1645 787.999 1645C769.774 1645 787.999 1540.36 787.999 1375.5C787.999 1210.64 359 982 727.165 1200C745.39 1200 760.165 1333.64 760.165 1498.5Z" fill="white"/>
<path d="M861.008 1181.5C861.008 1309.08 738 1674 845.508 1412.5C836.947 1412.5 726.5 1995.5 830.008 1181.5C830.008 1053.92 1300.5 973.5 845.508 950.5C854.068 950.5 1352.5 853 861.008 1181.5Z" fill="white"/>
<path d="M740.322 593.945C676.533 704.43 402.662 967.687 613.303 787.347C606.942 783.674 233.366 1241.18 717.285 580.644C781.074 470.159 1170.92 602.372 844.303 387.243C850.665 390.916 1269.81 520.326 740.322 593.945Z" fill="white"/>
<path d="M323.5 477C323.5 604.578 253 813 323.5 916C376.354 861.5 274.235 1185 363.054 371C363.054 243.422 514 -19.5 363.054 249.528C414 252.503 502.5 257.931 323.5 477Z" fill="white"/>
<path d="M453.213 1031.5C453.213 1273.12 809.154 1092.92 671.213 1290.42C671.213 1143 609.654 1294.92 421.713 1086.42C421.713 844.794 481.654 959.081 519.213 784.5C539.095 784.5 453.213 789.875 453.213 1031.5Z" fill="white"/>
<path d="M479.156 407.878C396.515 634.931 792.624 587.331 595.453 725.742C645.874 587.214 536.068 708.916 430.772 448.711C513.413 221.658 530.65 349.554 625.654 198.347C644.338 205.147 561.796 180.825 479.156 407.878Z" fill="white"/>
<path d="M438.396 1208.94C601.256 1491.02 693.502 1157.26 743.801 1435.64C644.438 1263.54 709.874 1462.23 456.5 1283.97C293.64 1001.89 406.66 1114.53 311.54 897.702C323.477 890.81 275.536 926.856 438.396 1208.94Z" fill="white"/>
<path d="M767.5 1042.5C725.401 1246 792 1335.5 767.5 1266.5C743 1375.5 790 1088 790 841.5C790 781.5 1053 778 1005 666.5C964 864 767.5 770 767.5 1042.5Z" fill="white"/>
<path d="M1140 603.5C1098.83 781.304 1033.96 745.525 1010 685.238C986.04 780.474 1166 795.874 1166 580.5C1166 528.076 1379.44 439.421 1332.5 342C1292.4 514.562 1217.5 422.5 1140 603.5Z" fill="white"/>
</svg>
