<svg width="1703" height="1675" viewBox="0 0 1703 1675" fill="none" xmlns="http://www.w3.org/2000/svg">
<rect x="47" y="7" width="1576" height="1668" fill="#0A0A0A"/>
<path d="M807.165 1505.5C807.165 1670.36 853.225 1652 834.999 1652C816.774 1652 834.999 1547.36 834.999 1382.5C834.999 1217.64 406 989 774.165 1207C792.39 1207 807.165 1340.64 807.165 1505.5Z" fill="white"/>
<path d="M908.008 1188.5C908.008 1316.08 785 1681 892.508 1419.5C883.947 1419.5 773.5 2002.5 877.008 1188.5C877.008 1060.92 1347.5 980.5 892.508 957.5C901.068 957.5 1399.5 860 908.008 1188.5Z" fill="white"/>
<path d="M374.998 1229.53C374.998 1357.11 251.99 1722.03 359.498 1460.53C350.937 1460.53 240.49 2043.53 343.998 1229.53C343.998 1101.95 814.49 1021.53 359.498 998.528C368.058 998.528 866.49 901.028 374.998 1229.53Z" fill="white"/>
<path d="M787.322 600.945C723.533 711.43 449.662 974.687 660.303 794.347C653.942 790.674 280.366 1248.18 764.285 587.644C828.074 477.159 1217.92 609.372 891.303 394.243C897.665 397.916 1316.81 527.326 787.322 600.945Z" fill="white"/>
<path d="M370.5 484C370.5 611.578 300 820 370.5 923C423.354 868.5 321.235 1192 410.054 378C410.054 250.422 561 -12.5 410.054 256.528C461 259.503 549.5 264.931 370.5 484Z" fill="white"/>
<path d="M1003.82 1336.33C1003.82 1410.74 861.835 1473.65 894.836 1625.65C1003.82 1274.5 1057.46 1407.65 1166.01 1274.5C1166.01 1200.09 1784.97 1046.73 1166.01 1203.65C1374.91 1205.38 1737.81 1208.55 1003.82 1336.33Z" fill="white"/>
<path d="M441.752 1218.65C467.203 1288.57 355.299 1396.25 438.296 1527.79C420.606 1160.55 516.554 1267.32 573.014 1105.08C547.562 1035.15 1076.74 679.343 548.783 1038.5C745.683 968.676 1087.78 847.533 441.752 1218.65Z" fill="white"/>
<path d="M500.213 1038.5C500.213 1280.12 856.154 1099.92 718.213 1297.42C718.213 1150 656.654 1301.92 468.713 1093.42C468.713 851.794 528.654 966.081 566.213 791.5C586.095 791.5 500.213 796.875 500.213 1038.5Z" fill="white"/>
<path d="M526.156 414.878C443.515 641.931 839.624 594.331 642.453 732.742C692.874 594.214 583.068 715.916 477.772 455.711C560.413 228.658 577.65 356.554 672.654 205.347C691.338 212.147 608.796 187.825 526.156 414.878Z" fill="white"/>
<path d="M536.156 1333.88C453.515 1560.93 849.624 1513.33 652.453 1651.74C702.874 1513.21 593.068 1634.92 487.772 1374.71C570.413 1147.66 587.65 1275.55 682.654 1124.35C701.338 1131.15 618.796 1106.82 536.156 1333.88Z" fill="white"/>
<path d="M1003.16 1345.88C920.515 1572.93 1316.62 1525.33 1119.45 1663.74C1169.87 1525.21 1060.07 1646.92 954.772 1386.71C1037.41 1159.66 1054.65 1287.55 1149.65 1136.35C1168.34 1143.15 1085.8 1118.82 1003.16 1345.88Z" fill="white"/>
<path d="M902.156 429.878C819.515 656.931 1215.62 609.331 1018.45 747.742C1068.87 609.214 959.068 730.916 853.772 470.711C936.413 243.658 953.65 371.554 1048.65 220.347C1067.34 227.147 984.796 202.825 902.156 429.878Z" fill="white"/>
<path d="M485.396 1215.94C648.256 1498.02 740.502 1164.26 790.801 1442.64C691.438 1270.54 756.874 1469.23 503.5 1290.97C340.64 1008.89 453.66 1121.53 358.54 904.702C370.477 897.81 322.536 933.856 485.396 1215.94Z" fill="white"/>
<path d="M814.5 1049.5C772.401 1253 839 1342.5 814.5 1273.5C790 1382.5 837 1095 837 848.5C837 788.5 1100 785 1052 673.5C1011 871 814.5 777 814.5 1049.5Z" fill="white"/>
<path d="M840.353 648.763C882.452 445.263 815.853 355.763 840.353 424.763C864.853 315.763 817.853 603.263 817.853 849.763C817.853 909.763 554.853 913.263 602.853 1024.76C643.853 827.263 840.353 921.263 840.353 648.763Z" fill="white"/>
<path d="M1252.84 1091.5C1210.74 1295 1173.65 1245.5 1149.15 1176.5C1124.65 1285.5 1302.34 1248.5 1302.34 1002C1302.34 942 1519 902.5 1471 791C1471 1015.5 1252.84 819 1252.84 1091.5Z" fill="white"/>
<path d="M1262 1485.5C1219.9 1689 1182.82 1639.5 1158.32 1570.5C1133.82 1679.5 1311.5 1642.5 1311.5 1396C1311.5 1336 1528.17 1296.5 1480.17 1185C1480.17 1409.5 1262 1213 1262 1485.5Z" fill="white"/>
<path d="M455.004 734.5C412.905 938 375.819 888.5 351.319 819.5C326.819 928.5 504.503 891.5 504.504 645C504.504 585 721.167 545.5 673.167 434C673.167 658.5 455.004 462 455.004 734.5Z" fill="white"/>
<path d="M661.004 471.5C618.905 675 581.819 625.5 557.319 556.5C532.819 665.5 710.503 628.5 710.504 382C710.504 322 927.167 282.5 879.167 171C879.167 395.5 661.004 199 661.004 471.5Z" fill="white"/>
<path d="M1106 528.5C1063.9 732 1026.82 682.5 1002.32 613.5C977.819 722.5 1155.5 685.5 1155.5 439C1155.5 379 1372.17 339.5 1324.17 228C1324.17 452.5 1106 256 1106 528.5Z" fill="white"/>
<path d="M301.361 1087.89C399.919 1270.84 339.692 1256.76 276.571 1219.65C327.867 1318.9 440.198 1176.34 281.751 987.512C243.184 941.549 383.767 772.022 275.326 717.462C419.632 889.439 126.201 879.144 301.361 1087.89Z" fill="white"/>
<path d="M274.361 579.891C372.919 762.841 312.692 748.761 249.571 711.652C300.867 810.899 413.198 668.342 254.751 479.512C216.184 433.549 356.767 264.022 248.326 209.462C392.632 381.439 99.2015 371.144 274.361 579.891Z" fill="white"/>
<path d="M624.361 374.891C722.919 557.841 662.692 543.761 599.571 506.652C650.867 605.899 763.198 463.342 604.751 274.512C566.184 228.549 706.767 59.022 598.326 4.46196C742.632 176.439 449.201 166.144 624.361 374.891Z" fill="white"/>
<path d="M905.361 390.891C1003.92 573.841 943.692 559.761 880.571 522.652C931.867 621.899 1044.2 479.342 885.751 290.512C847.184 244.549 987.767 75.022 879.326 20.462C1023.63 192.439 730.201 182.144 905.361 390.891Z" fill="white"/>
<path d="M1222.36 390.891C1196.33 609.5 1224.12 735.609 1161 698.5C1212.3 797.747 1310.15 418.5 1202.75 290.512C1164.18 244.549 1330.8 162.56 1222.36 108C1366.67 279.977 1047.2 182.144 1222.36 390.891Z" fill="white"/>
<path d="M1412.8 614.114C1386.77 832.723 1414.56 958.832 1351.44 921.723C1402.74 1020.97 1500.59 641.723 1393.19 513.735C1354.62 467.772 1521.24 385.783 1412.8 331.223C1557.11 503.2 1237.64 405.367 1412.8 614.114Z" fill="white"/>
<path d="M327.802 304.114C301.767 522.723 329.561 648.832 266.44 611.723C317.736 710.97 415.587 331.723 308.191 203.735C269.624 157.772 436.243 75.7829 327.802 21.2229C472.108 193.2 152.642 95.3665 327.802 304.114Z" fill="white"/>
<path d="M1187 610.5C1145.83 788.304 1080.96 752.525 1057 692.238C1033.04 787.474 1213 802.874 1213 587.5C1213 535.076 1426.44 446.421 1379.5 349C1339.4 521.562 1264.5 429.5 1187 610.5Z" fill="white"/>
<path d="M1206.15 867.617C1179.32 1045.5 1117.12 1016.31 1101.5 956C1085.88 1051.28 1223.1 1060.08 1223.1 844.607C1223.1 792.16 1362.2 703.465 1331.6 606C1305.47 778.639 1256.66 686.536 1206.15 867.617Z" fill="white"/>
</svg>
